<svg width="73" height="29" viewBox="0 0 73 29" fill="none" xmlns="http://www.w3.org/2000/svg">
<g filter="url(#filter0_d_99_1813)">
<path d="M56.5108 3.48363C56.5108 3.34267 56.5612 3.20682 56.6521 3.10025L56.6792 3.07242C56.7304 3.0199 56.7915 2.97816 56.859 2.94966C56.9265 2.92116 56.9991 2.90648 57.0724 2.90648C57.1457 2.90648 57.2182 2.92116 57.2858 2.94966C57.3533 2.97816 57.4144 3.0199 57.4656 3.07242L57.4657 3.07251L66.908 12.7609L66.908 12.7609C67.0229 12.8787 67.0871 13.0367 67.0871 13.2011C67.0871 13.3656 67.0229 13.5236 66.908 13.6414L66.908 13.6414L57.4657 23.3298L57.4656 23.3299C57.4144 23.3824 57.3533 23.4241 57.2858 23.4526C57.2182 23.4811 57.1457 23.4958 57.0724 23.4958C56.9991 23.4958 56.9265 23.4811 56.859 23.4526C56.7915 23.4241 56.7304 23.3824 56.6792 23.3299L56.6789 23.3296C56.5711 23.2192 56.5108 23.0711 56.5108 22.9168C56.5108 22.7626 56.5711 22.6145 56.6789 22.5041L56.6791 22.5039L65.5584 13.3968L65.7492 13.2012L65.5584 13.0055L56.6791 3.89655L56.6789 3.89635C56.5711 3.786 56.5108 3.63788 56.5108 3.48363Z" fill="#282828" stroke="#282828" stroke-width="0.560661"/>
<path d="M2.30084 13.1718C2.30084 15.6489 4.30898 17.6571 6.78613 17.6571C9.26329 17.6571 11.2714 15.6489 11.2714 13.1718C11.2714 10.6946 9.26329 8.6865 6.78613 8.6865C4.30898 8.6865 2.30084 10.6946 2.30084 13.1718ZM65.2205 12.3308H6.78613V14.0128H65.2205V12.3308Z" fill="#282828"/>
</g>
<defs>
<filter id="filter0_d_99_1813" x="0.198303" y="0.523668" width="72.0752" height="28.1583" filterUnits="userSpaceOnUse" color-interpolation-filters="sRGB">
<feFlood flood-opacity="0" result="BackgroundImageFix"/>
<feColorMatrix in="SourceAlpha" type="matrix" values="0 0 0 0 0 0 0 0 0 0 0 0 0 0 0 0 0 0 127 0" result="hardAlpha"/>
<feOffset dx="1.40165" dy="1.40165"/>
<feGaussianBlur stdDeviation="1.75207"/>
<feComposite in2="hardAlpha" operator="out"/>
<feColorMatrix type="matrix" values="0 0 0 0 0 0 0 0 0 0 0 0 0 0 0 0 0 0 0.5 0"/>
<feBlend mode="normal" in2="BackgroundImageFix" result="effect1_dropShadow_99_1813"/>
<feBlend mode="normal" in="SourceGraphic" in2="effect1_dropShadow_99_1813" result="shape"/>
</filter>
</defs>
</svg>
